# xmcd
#
# Track frame offsets:
#	150
#	37055
#	76113
#	102325
#	144016
#	172261
#
# Disc length: 2639 seconds
#
# Revision: 0
# Processed by: cddbd v1.5.1PL2 Copyright (c) Steve Scherf et al.
# Submitted via: EasyCDDAExtractor 9.0.0.1
#
DISCID=460a4d06
DTITLE=Paul Barrere and Fred Tackett (Little Feat) Disc 2 - Private Party in O
DTITLE=range County NY
DYEAR=1900
DGENRE=
TTITLE0=Everything I Do Is Going To Be Funcky
TTITLE1=Don't Bogart That Joint
TTITLE2=Skin It Back
TTITLE3=All That You Dream
TTITLE4=Eula
TTITLE5=Old Folks Boogie
EXTD=
EXTT0=
EXTT1=
EXTT2=
EXTT3=
EXTT4=
EXTT5=
PLAYORDER=
